<svg xmlns="http://www.w3.org/2000/svg" viewBox="0 0 100 100">
  <circle cx="50" cy="50" r="50" fill="#1b3a5c"/>
  <g transform="translate(18, 15) scale(0.3)">
    <path fill="white" d="M 199 57 L 191 56 L 190 55 L 184 55 L 183 54 L 162 54 L 161 55 L 155 55 L 154 56 L 146 57 L 145 58 L 134 61 L 124 66 L 113 62 L 109 62 L 104 60 L 89 59 L 97 68 L 103 77 L 104 80 L 94 90 L 84 104 L 77 118 L 77 120 L 74 127 L 74 130 L 72 135 L 72 139 L 71 140 L 71 148 L 70 149 L 70 163 L 71 164 L 71 172 L 72 173 L 72 178 L 73 179 L 74 186 L 76 189 L 79 199 L 85 210 L 92 220 L 103 232 L 104 232 L 113 240 L 122 245 L 124 247 L 145 255 L 142 253 L 139 247 L 139 245 L 137 242 L 137 239 L 135 235 L 135 232 L 134 231 L 134 226 L 133 225 L 133 207 L 134 206 L 134 201 L 137 193 L 137 190 L 145 174 L 151 166 L 165 152 L 180 142 L 203 132 L 206 132 L 210 130 L 214 130 L 219 128 L 228 127 L 213 126 L 212 125 L 190 125 L 189 126 L 182 126 L 181 127 L 175 127 L 174 128 L 166 129 L 162 131 L 159 131 L 156 133 L 153 133 L 144 138 L 142 138 L 127 148 L 117 158 L 112 165 L 107 176 L 107 179 L 105 184 L 105 200 L 106 201 L 107 209 L 112 221 L 120 233 L 134 247 L 133 248 L 130 247 L 122 241 L 109 228 L 102 218 L 99 212 L 99 210 L 97 207 L 97 205 L 95 201 L 95 198 L 94 197 L 93 182 L 94 181 L 94 173 L 95 172 L 95 169 L 100 156 L 110 141 L 121 130 L 138 118 L 148 113 L 158 110 L 161 108 L 164 108 L 168 106 L 176 105 L 181 103 L 187 103 L 188 102 L 202 102 L 203 101 L 209 101 L 210 102 L 225 102 L 226 103 L 231 103 L 232 104 L 236 104 L 237 105 L 245 106 L 249 108 L 252 108 L 255 110 L 260 110 L 261 109 L 263 109 L 261 104 L 255 95 L 238 77 L 225 68 L 211 61 L 209 61 Z"/>
  </g>
</svg>