<svg width="112" height="48" viewBox="0 0 112 48" fill="none" xmlns="http://www.w3.org/2000/svg">
<mask id="mask0_9_5046" style="mask-type:alpha" maskUnits="userSpaceOnUse" x="0" y="0" width="112" height="48">
<rect width="112" height="48" fill="#D9D9D9"/>
</mask>
<g mask="url(#mask0_9_5046)">
<path d="M112 39.0443C111.097 39.2249 110.335 39.3152 109.714 39.3152C108.383 39.3152 107.412 39.0838 106.802 38.621C106.193 38.147 105.82 37.5488 105.685 36.8264C105.55 36.104 105.482 35.0995 105.482 33.8128V23.4682H103.264V21.1149H105.482V16.6452L108.529 14.7998V21.1149H111.577V23.4682H108.529V33.9821C108.529 34.885 108.62 35.5284 108.8 35.9122C108.992 36.2846 109.466 36.4709 110.222 36.4709C110.663 36.4709 111.114 36.4257 111.577 36.3354L112 39.0443Z" fill="#1E1E1E"/>
<path d="M98.717 26.1427C98.5816 25.1607 98.1809 24.4271 97.5149 23.9417C96.8603 23.4451 95.946 23.1968 94.7722 23.1968C93.6096 23.1968 92.6672 23.3943 91.9448 23.7894C91.2337 24.1844 90.8782 24.76 90.8782 25.5163C90.8782 26.2274 91.1604 26.7353 91.7247 27.04C92.3003 27.3448 93.429 27.7172 95.1108 28.1574C97.007 28.6428 98.4235 29.0717 99.3604 29.4442C100.308 29.8166 101.042 30.3415 101.561 31.0187C102.092 31.6846 102.357 32.6158 102.357 33.8122C102.357 35.415 101.702 36.7638 100.393 37.8586C99.0838 38.9535 97.3343 39.5009 95.1447 39.5009C92.8647 39.5009 91.0813 39.0212 89.7946 38.0618C88.5192 37.0911 87.7347 35.6407 87.4413 33.7106L90.4718 33.2535C90.6299 34.5064 91.0926 35.4432 91.8602 36.064C92.639 36.6848 93.7225 36.9952 95.1108 36.9952C96.4427 36.9952 97.4641 36.7186 98.1752 36.1656C98.8863 35.6012 99.2419 34.9184 99.2419 34.117C99.2419 33.5752 99.0782 33.1407 98.7509 32.8133C98.4235 32.486 98.0116 32.2433 97.5149 32.0853C97.0296 31.916 95.9291 31.6225 94.2135 31.2049C91.6626 30.5954 89.9752 29.8561 89.1513 28.987C88.3386 28.1179 87.9323 27.0795 87.9323 25.8718C87.9323 24.3706 88.5305 23.1347 89.7269 22.164C90.9233 21.1933 92.5317 20.708 94.5521 20.708C96.6966 20.708 98.3615 21.1313 99.5466 21.9778C100.743 22.813 101.46 24.0659 101.697 25.7364L98.717 26.1427Z" fill="#1E1E1E"/>
<path d="M87.144 21.1143L80.2702 39.3823C80.2589 39.4049 80.2476 39.4444 80.2363 39.5008C79.5817 41.5325 78.8142 43.1804 77.9338 44.4445C77.0647 45.7199 75.8231 46.3577 74.2091 46.3577C73.6673 46.3577 73.007 46.2448 72.2282 46.019L71.9234 43.1409C72.5104 43.3215 73.086 43.4117 73.6504 43.4117C74.7791 43.4117 75.5579 43.1014 75.9868 42.4806C76.427 41.8598 76.9179 40.7367 77.4597 39.1114L70.6367 21.1143H73.9212L78.1539 32.881C78.4022 33.6033 78.6674 34.5345 78.9496 35.6745H79.0173C79.2995 34.3652 79.6607 33.118 80.1009 31.9329L84.0457 21.1143H87.144Z" fill="#1E1E1E"/>
<path d="M68.7649 39.0779H65.7174V14.2578H68.7649V39.0779Z" fill="#1E1E1E"/>
<path d="M63.033 39.0776H59.8331C59.5397 38.5133 59.3308 37.774 59.2067 36.8597C57.1637 38.6205 54.9571 39.5009 52.5869 39.5009C50.6906 39.5009 49.1951 39.0268 48.1003 38.0787C47.0054 37.1306 46.458 35.8777 46.458 34.3201C46.458 32.8303 46.9829 31.6056 48.0325 30.6462C49.0935 29.6755 50.9277 29.0322 53.535 28.7161L56.3793 28.2929C57.4403 28.1236 58.315 27.9148 59.0035 27.6664C59.0035 26.7522 58.9753 26.1088 58.9189 25.7364C58.8624 25.3526 58.6931 24.9576 58.4109 24.5512C58.1401 24.1449 57.6999 23.8176 57.0904 23.5693C56.4809 23.321 55.6626 23.1968 54.6354 23.1968C53.3262 23.1968 52.2877 23.4395 51.5202 23.9248C50.764 24.4101 50.2448 25.3131 49.9626 26.6337L46.9829 26.2443C47.3102 24.4045 48.1511 23.0218 49.5055 22.0963C50.8599 21.1708 52.7223 20.708 55.0926 20.708C57.2484 20.708 58.8286 21.0297 59.8331 21.673C60.8489 22.3051 61.4697 23.0726 61.6955 23.9756C61.9325 24.8786 62.051 26.0411 62.051 27.4633V31.5605C62.051 34.0549 62.0962 35.731 62.1865 36.5888C62.288 37.4354 62.5702 38.265 63.033 39.0776ZM59.0035 31.1711V30.0706C57.412 30.6011 55.465 31.0243 53.1625 31.3404C50.8599 31.6451 49.7087 32.6158 49.7087 34.2524C49.7087 35.0764 50.0191 35.7592 50.6398 36.301C51.2606 36.8315 52.1523 37.0967 53.3149 37.0967C54.816 37.0967 56.1366 36.6509 57.2766 35.7592C58.4279 34.8563 59.0035 33.3269 59.0035 31.1711Z" fill="#1E1E1E"/>
<path d="M45.8559 39.0443C44.9529 39.2249 44.1911 39.3152 43.5703 39.3152C42.2384 39.3152 41.2677 39.0838 40.6582 38.621C40.0487 38.147 39.6763 37.5488 39.5408 36.8264C39.4054 36.104 39.3376 35.0995 39.3376 33.8128V23.4682H37.1198V21.1149H39.3376V16.6452L42.3851 14.7998V21.1149H45.4326V23.4682H42.3851V33.9821C42.3851 34.885 42.4754 35.5284 42.656 35.9122C42.8479 36.2846 43.322 36.4709 44.0782 36.4709C44.5184 36.4709 44.9699 36.4257 45.4326 36.3354L45.8559 39.0443Z" fill="#1E1E1E"/>
<path d="M36.1621 39.0776H32.9623C32.6688 38.5133 32.46 37.774 32.3358 36.8597C30.2929 38.6205 28.0863 39.5009 25.716 39.5009C23.8198 39.5009 22.3243 39.0268 21.2294 38.0787C20.1346 37.1306 19.5872 35.8777 19.5872 34.3201C19.5872 32.8303 20.112 31.6056 21.1617 30.6462C22.2227 29.6755 24.0568 29.0322 26.6641 28.7161L29.5084 28.2929C30.5694 28.1236 31.4442 27.9148 32.1327 27.6664C32.1327 26.7522 32.1045 26.1088 32.048 25.7364C31.9916 25.3526 31.8223 24.9576 31.5401 24.5512C31.2692 24.1449 30.829 23.8176 30.2195 23.5693C29.61 23.321 28.7917 23.1968 27.7646 23.1968C26.4553 23.1968 25.4169 23.4395 24.6494 23.9248C23.8932 24.4101 23.374 25.3131 23.0918 26.6337L20.112 26.2443C20.4393 24.4045 21.2802 23.0218 22.6347 22.0963C23.9891 21.1708 25.8514 20.708 28.2217 20.708C30.3775 20.708 31.9577 21.0297 32.9623 21.673C33.9781 22.3051 34.5989 23.0726 34.8246 23.9756C35.0617 24.8786 35.1802 26.0411 35.1802 27.4633V31.5605C35.1802 34.0549 35.2253 35.731 35.3156 36.5888C35.4172 37.4354 35.6994 38.265 36.1621 39.0776ZM32.1327 31.1711V30.0706C30.5412 30.6011 28.5942 31.0243 26.2916 31.3404C23.9891 31.6451 22.8378 32.6158 22.8378 34.2524C22.8378 35.0764 23.1482 35.7592 23.769 36.301C24.3898 36.8315 25.2815 37.0967 26.444 37.0967C27.9452 37.0967 29.2658 36.6509 30.4058 35.7592C31.557 34.8563 32.1327 33.3269 32.1327 31.1711Z" fill="#1E1E1E"/>
<path d="M28.3633 0.88851C32.6324 1.66907 36.759 3.64159 40.1014 6.57306C40.7935 7.1778 41.4537 7.82172 42.0772 8.50125C42.8233 9.31439 43.518 10.1787 44.154 11.0868C41.5253 12.7813 38.8965 14.4762 36.2679 16.1708C35.9256 15.5612 35.5418 14.9716 35.1194 14.4082C34.7664 13.9373 34.3856 13.4848 33.9806 13.0534C32.0237 10.9635 29.4759 9.39346 26.6224 8.57489C18.2192 5.884 7.73884 11.3759 5.29662 20.7524C2.40931 29.9434 8.45018 41.2925 18.6223 43.8967C22.9468 45.1201 27.7641 44.8012 32.0104 42.9151C33.5114 42.2534 34.9411 41.406 36.2553 40.3928C35.0424 41.5252 33.6847 42.5162 32.2197 43.3346C28.0822 45.6639 23.0471 46.5317 18.2255 45.6487C6.95195 43.9409 -1.88337 31.7035 0.578162 19.6837C2.44804 7.61432 15.5555 -1.76988 28.3633 0.88851Z" fill="#1E1E1E"/>
</g>
</svg>
